ffmpeg version 4.2.7-0ubuntu0.1 Copyright (c) 2000-2022 the FFmpeg developers
  built with gcc 9 (Ubuntu 9.4.0-1ubuntu1~20.04.1)
  configuration: --prefix=/usr --extra-version=0ubuntu0.1 --toolchain=hardened --libdir=/usr/lib/x86_64-linux-gnu --incdir=/usr/include/x86_64-linux-gnu --arch=amd64 --enable-gpl --disable-stripping --enable-avresample --disable-filter=resample --enable-avisynth --enable-gnutls --enable-ladspa --enable-libaom --enable-libass --enable-libbluray --enable-libbs2b --enable-libcaca --enable-libcdio --enable-libcodec2 --enable-libflite --enable-libfontconfig --enable-libfreetype --enable-libfribidi --enable-libgme --enable-libgsm --enable-libjack --enable-libmp3lame --enable-libmysofa --enable-libopenjpeg --enable-libopenmpt --enable-libopus --enable-libpulse --enable-librsvg --enable-librubberband --enable-libshine --enable-libsnappy --enable-libsoxr --enable-libspeex --enable-libssh --enable-libtheora --enable-libtwolame --enable-libvidstab --enable-libvorbis --enable-libvpx --enable-libwavpack --enable-libwebp --enable-libx265 --enable-libxml2 --enable-libxvid --enable-libzmq --enable-libzvbi --enable-lv2 --enable-omx --enable-openal --enable-opencl --enable-opengl --enable-sdl2 --enable-libdc1394 --enable-libdrm --enable-libiec61883 --enable-nvenc --enable-chromaprint --enable-frei0r --enable-libx264 --enable-shared
  libavutil      56. 31.100 / 56. 31.100
  libavcodec     58. 54.100 / 58. 54.100
  libavformat    58. 29.100 / 58. 29.100
  libavdevice    58.  8.100 / 58.  8.100
  libavfilter     7. 57.100 /  7. 57.100
  libavresample   4.  0.  0 /  4.  0.  0
  libswscale      5.  5.100 /  5.  5.100
  libswresample   3.  5.100 /  3.  5.100
  libpostproc    55.  5.100 / 55.  5.100
[rawvideo @ 0x55a1f4195780] Estimating duration from bitrate, this may be inaccurate
Input #0, rawvideo, from 'output.yuv':
  Duration: 00:00:04.80, start: 0.000000, bitrate: 2488320 kb/s
    Stream #0:0: Video: rawvideo (I420 / 0x30323449), yuv420p, 3840x2160, 2488320 kb/s, 25 tbr, 25 tbn, 25 tbc
Stream mapping:
  Stream #0:0 -> #0:0 (rawvideo (native) -> h264 (libx264))
Press [q] to stop, [?] for help
[libx264 @ 0x55a1f419ad80] using cpu capabilities: MMX2 SSE2Fast SSSE3 SSE4.2 AVX
[libx264 @ 0x55a1f419ad80] profile High, level 5.1
Output #0, h264, to 'output_h264.264':
  Metadata:
    encoder         : Lavf58.29.100
    Stream #0:0: Video: h264 (libx264), yuv420p, 3840x2160, q=-1--1, 30 fps, 30 tbn, 30 tbc
    Metadata:
      encoder         : Lavc58.54.100 libx264
    Side data:
      cpb: bitrate max/min/avg: 0/0/0 buffer size: 0 vbv_delay: -1
frame=   17 fps=0.0 q=0.0 size=       0kB time=00:00:00.00 bitrate=N/A speed=   0x    frame=   36 fps= 35 q=0.0 size=       0kB time=00:00:00.00 bitrate=N/A speed=   0x    frame=   37 fps=7.2 q=0.0 size=       0kB time=00:00:00.00 bitrate=N/A speed=   0x    frame=   47 fps=4.9 q=0.0 size=       0kB time=00:00:00.00 bitrate=N/A speed=   0x    frame=   48 fps=3.5 q=0.0 size=       0kB time=00:00:00.00 bitrate=N/A speed=   0x    frame=   56 fps=3.8 q=0.0 size=       0kB time=00:00:00.00 bitrate=N/A speed=   0x    frame=   60 fps=3.9 q=29.0 size=    1280kB time=00:00:00.06 bitrate=157285.6kbits/s speed=0.00429x    frame=   61 fps=2.6 q=29.0 size=    1536kB time=00:00:00.10 bitrate=125829.1kbits/s speed=0.0043x    frame=   68 fps=2.8 q=29.0 size=    3328kB time=00:00:00.33 bitrate=81789.0kbits/s speed=0.0139x    frame=   70 fps=2.1 q=29.0 size=    4096kB time=00:00:00.40 bitrate=83886.1kbits/s speed=0.0122x    frame=   76 fps=2.3 q=29.0 size=    5632kB time=00:00:00.60 bitrate=76895.6kbits/s speed=0.018x    frame=   82 fps=2.4 q=29.0 size=    7168kB time=00:00:00.80 bitrate=73400.3kbits/s speed=0.0235x    frame=   83 fps=2.4 q=29.0 size=    7424kB time=00:00:00.83 bitrate=72980.9kbits/s speed=0.0237x    frame=   88 fps=2.5 q=29.0 size=    8704kB time=00:00:01.00 bitrate=71303.2kbits/s speed=0.0279x    frame=   91 fps=2.5 q=29.0 size=    9472kB time=00:00:01.10 bitrate=70540.6kbits/s speed=0.0303x    frame=   95 fps=2.5 q=29.0 size=   10496kB time=00:00:01.23 bitrate=69716.2kbits/s speed=0.0329x    frame=   97 fps=2.6 q=29.0 size=   10752kB time=00:00:01.30 bitrate=67754.1kbits/s speed=0.0342x    frame=   98 fps=2.3 q=29.0 size=   11264kB time=00:00:01.33 bitrate=69206.0kbits/s speed=0.0317x    frame=  104 fps=2.4 q=29.0 size=   12800kB time=00:00:01.53 bitrate=68385.4kbits/s speed=0.036x    frame=  110 fps=2.5 q=29.0 size=   14336kB time=00:00:01.73 bitrate=67754.2kbits/s speed=0.0398x    frame=  112 fps=2.2 q=29.0 size=   14592kB time=00:00:01.80 bitrate=66409.8kbits/s speed=0.0354x    frame=  120 fps=1.5 q=-1.0 Lsize=   27540kB time=00:00:03.93 bitrate=57358.2kbits/s speed=0.0484x    
video:27540kB audio:0kB subtitle:0kB other streams:0kB global headers:0kB muxing overhead: 0.000000%
[libx264 @ 0x55a1f419ad80] frame I:2     Avg QP:24.46  size:648748
[libx264 @ 0x55a1f419ad80] frame P:30    Avg QP:26.23  size:352132
[libx264 @ 0x55a1f419ad80] frame B:88    Avg QP:27.70  size:185678
[libx264 @ 0x55a1f419ad80] consecutive B-frames:  1.7%  0.0%  5.0% 93.3%
[libx264 @ 0x55a1f419ad80] mb I  I16..4:  2.6% 87.5% 10.0%
[libx264 @ 0x55a1f419ad80] mb P  I16..4:  0.4% 15.0%  1.0%  P16..4: 51.7% 19.8% 10.5%  0.0%  0.0%    skip: 1.6%
[libx264 @ 0x55a1f419ad80] mb B  I16..4:  0.0%  2.6%  0.0%  B16..8: 45.7%  6.2%  1.4%  direct:25.5%  skip:18.5%  L0:47.8% L1:47.4% BI: 4.8%
[libx264 @ 0x55a1f419ad80] 8x8 transform intra:92.1% inter:76.4%
[libx264 @ 0x55a1f419ad80] coded y,uvDC,uvAC intra: 88.7% 98.3% 87.0% inter: 45.6% 80.7% 32.7%
[libx264 @ 0x55a1f419ad80] i16 v,h,dc,p: 15% 28%  3% 53%
[libx264 @ 0x55a1f419ad80] i8 v,h,dc,ddl,ddr,vr,hd,vl,hu: 11% 14% 18%  7% 11%  9% 11%  8% 10%
[libx264 @ 0x55a1f419ad80] i4 v,h,dc,ddl,ddr,vr,hd,vl,hu: 14% 17% 12%  8% 14% 10% 12%  6%  7%
[libx264 @ 0x55a1f419ad80] i8c dc,h,v,p: 55% 16% 16% 13%
[libx264 @ 0x55a1f419ad80] Weighted P-Frames: Y:3.3% UV:3.3%
[libx264 @ 0x55a1f419ad80] ref P L0: 40.8% 13.1% 35.2% 10.8%  0.2%
[libx264 @ 0x55a1f419ad80] ref B L0: 82.1% 14.9%  3.0%
[libx264 @ 0x55a1f419ad80] ref B L1: 93.7%  6.3%
[libx264 @ 0x55a1f419ad80] kb/s:56402.22
